<svg version="1.1" id="Layer_1" xmlns="http://www.w3.org/2000/svg" xmlns:xlink="http://www.w3.org/1999/xlink" x="0px" y="0px" viewBox="0 0 100 74.767" style="enable-background:new 0 0 375.3 280.6;" xml:space="preserve" width="100" height="74.767"><style type="text/css">
	.st0{opacity:0.2;fill:#8C8C92;enable-background:new    ;}
	.st1{fill:#F8F8F8;stroke:#333333;stroke-width:1.4221;stroke-miterlimit:10;}
	.st2{fill:#33CD73;stroke:#333333;stroke-width:1.4221;stroke-linecap:round;stroke-linejoin:round;}
	.st3{fill:#33CD73;}
	.st4{fill:none;stroke:#333333;stroke-width:1.4221;stroke-linecap:round;stroke-linejoin:round;stroke-miterlimit:10;}
	.st5{fill:#333333;}
	.st6{fill:#333333;stroke:#333333;stroke-width:1.4221;stroke-linecap:round;stroke-linejoin:round;stroke-miterlimit:10;}
	.st7{fill:#F8F8F8;stroke:#333333;stroke-width:1.4221;stroke-linecap:round;stroke-linejoin:round;}
	.st8{fill:#F8F8F8;stroke:#333333;stroke-width:1.3908;stroke-miterlimit:10;}
	.st9{fill:none;stroke:#333333;stroke-width:1.3908;stroke-linecap:round;stroke-linejoin:round;stroke-miterlimit:10;}
	.st10{fill:#33CD73;stroke:#333333;stroke-width:1.3908;stroke-linecap:round;stroke-linejoin:round;}
	.st11{fill:#F7F7F7;stroke:#333333;stroke-width:1.3908;stroke-linecap:round;stroke-linejoin:round;stroke-miterlimit:10;}
	.st12{fill:#DBDBDD;stroke:#333333;stroke-width:1.3908;stroke-linecap:round;stroke-linejoin:round;}
	.st13{fill:#FFFFFF;stroke:#333333;stroke-width:1.3908;stroke-miterlimit:10;}
	.st14{fill:#333333;stroke:#333333;stroke-width:1.3908;stroke-linecap:round;stroke-linejoin:round;stroke-miterlimit:10;}
	.st15{fill:#F8F8F8;stroke:#333333;stroke-width:1.5;stroke-miterlimit:10;}
	.st16{fill:#33CD73;stroke:#333333;stroke-width:1.5;stroke-linecap:round;stroke-linejoin:round;}
	.st17{fill:#33CD73;stroke:#333333;stroke-width:1.5;stroke-linecap:round;stroke-linejoin:round;}
	.st18{fill:#DADADC;stroke:#333333;stroke-width:1.5;stroke-linecap:round;stroke-linejoin:round;stroke-miterlimit:10;}
	.st19{fill:none;stroke:#333333;stroke-width:3;stroke-linecap:round;stroke-linejoin:round;stroke-miterlimit:10;}
	.st20{fill:none;stroke:#333333;stroke-width:1.5;stroke-linecap:round;stroke-linejoin:round;stroke-miterlimit:10;}
	.st21{fill:#F7F7F7;stroke:#333333;stroke-width:1.5;stroke-linecap:round;stroke-linejoin:round;stroke-miterlimit:10;}
	.st22{fill:#DBDBDD;stroke:#333333;stroke-width:1.2724;stroke-miterlimit:10;}
	.st23{fill:none;stroke:#333333;stroke-width:1.5;stroke-miterlimit:10;}
	.st24{fill:#FFFFFF;stroke:#333333;stroke-width:1.5;stroke-miterlimit:10;}
	.st25{fill:#333333;stroke:#333333;stroke-width:1.5;stroke-linecap:round;stroke-linejoin:round;stroke-miterlimit:3.9999;}
	.st26{fill:none;stroke:#333333;stroke-width:1.2;stroke-linecap:round;stroke-linejoin:round;stroke-miterlimit:10;}
	.st27{fill:#333333;stroke:#333333;stroke-width:1.5;stroke-linecap:round;stroke-linejoin:round;}
	.st28{fill:#FFFFFF;stroke:#333333;stroke-width:1.5;stroke-linecap:round;stroke-linejoin:round;stroke-miterlimit:10;}
	.st29{fill:#FFFFFF;stroke:#333333;stroke-width:1.5;stroke-linecap:round;stroke-miterlimit:10;}
	.st30{fill:#33CD73;stroke:#333333;stroke-width:1.2724;stroke-linecap:round;stroke-linejoin:round;}
	.st31{fill:#FFFFFF;}
	.st32{fill:none;stroke:#333333;stroke-width:1.2724;stroke-linecap:round;stroke-miterlimit:10;}
	.st33{fill:none;stroke:#333333;stroke-width:1.2724;stroke-miterlimit:10;}
	.st34{fill:#F8F8F8;}
	.st35{fill:#DBDBDD;stroke:#333333;stroke-width:1.5;stroke-miterlimit:10;}
	.st36{fill:#DADADC;}
</style><path transform="matrix(4.403524e-02 -0.999 0.999 4.403524e-02 -25.162 396.0433)" class="st0" cx="194.4" cy="211.2" rx="11.4" ry="122.6" d="M54.836 56.275A3.038 32.667 0 0 1 51.799 88.942A3.038 32.667 0 0 1 48.761 56.275A3.038 32.667 0 0 1 54.836 56.275z"/><g><path class="st1" d="M73.861 32.108c0 0 -5.196 -8.713 -13.749 -12.39c-8.553 -3.704 -19.638 -3.704 -26.059 0s-8.953 7.621 -8.953 7.621l-0.4 0.719c0 0 4.849 -0.506 11.298 1.759s17.826 2.984 23.261 3.064c5.462 0.08 6.555 -0.586 6.555 -0.586S69.891 30.376 73.861 32.108z"/><path class="st2" d="M79.563 40.714c0 0 -7.381 -0.24 -10.072 2.292c-2.425 2.292 -2.665 8.873 -2.665 8.873l-19.211 -3.171l-18.066 -3.73c0 0 -1.146 -4.237 -3.091 -7.994c0 0 -2.744 -1.092 -6.128 -1.732c0 0 1.732 4.636 3.57 7.194l-2.078 0.4l-0.933 -1.572c0 0 -2.638 -4.13 -2.958 -7.647c-0.293 -3.544 3.251 -4.849 3.251 -4.849s4.796 -2.345 14.442 0.853s26.539 3.464 28.884 3.064c2.345 -0.4 5.089 -3.384 12.097 0.853c4.636 2.798 4.183 5.222 3.357 6.555L79.563 40.714z"/><path class="st3" d="M75.38 38.289c0 0 -0.346 -1.918 -1.839 -2.718s-3.437 -1.812 -5.489 -2.132l1.545 3.118C69.571 36.557 73.967 38.103 75.38 38.289z"/><path class="st4" d="M37.117 31.228c0 0 -1.918 4.556 0.533 10.525c1.013 2.451 1.972 4.29 2.638 5.436"/><path class="st4" x1="222.5" y1="125.5" x2="221.1" y2="189.8" d="M59.286 33.44L58.913 50.573"/><path class="st4" d="M80.416 37.677c0 0 -2.052 1.412 -5.675 0.426c-3.597 -0.986 -5.089 -1.572 -5.089 -1.572l-1.545 -3.118c0 0 3.73 0.959 5.489 2.132c0.959 0.666 1.652 1.785 1.652 1.785"/><path class="st5" cx="286.7" cy="191" rx="24.4" ry="29.7" d="M82.894 50.893A6.501 7.914 0 0 1 76.392 58.806A6.501 7.914 0 0 1 69.891 50.893A6.501 7.914 0 0 1 82.894 50.893z"/><path class="st5" cx="86.3" cy="184.5" rx="21.4" ry="25.5" d="M28.697 49.161A5.702 6.795 0 0 1 22.995 55.955A5.702 6.795 0 0 1 17.293 49.161A5.702 6.795 0 0 1 28.697 49.161z"/><path class="st6" d="M42.499 50.866c-1.013 1.865 -2.798 3.118 -4.796 3.118c-2.398 0 -4.45 -1.759 -5.302 -4.237"/><path class="st4" d="M46.15 19.984c-2.505 0.639 -7.327 2.505 -12.257 7.994"/><path class="st4" d="M40.714 17.399c0 0 -1.812 4.503 -3.437 12.39"/><path class="st4" points="265.2,205 159.1,190.3 127.8,186.6 108.1,184.9 	" d="M70.663 54.623L42.393 50.706L34.053 49.72L28.804 49.267"/><path class="st7" cx="284" cy="191" rx="14.9" ry="19.3" d="M79.643 50.893A3.97 5.143 0 0 1 75.673 56.035A3.97 5.143 0 0 1 71.703 50.893A3.97 5.143 0 0 1 79.643 50.893z"/><path class="st7" cx="83.5" cy="184.5" rx="10.9" ry="16" d="M25.153 49.161A2.904 4.263 0 0 1 22.249 53.424A2.904 4.263 0 0 1 19.345 49.161A2.904 4.263 0 0 1 25.153 49.161z"/><path class="st4" d="M65.201 32.214c0.053 -0.666 -0.027 -0.959 -0.027 -0.959c-0.293 -2.611 -2.638 -4.503 -5.249 -4.21c-2.611 0.293 -4.503 2.638 -4.21 5.249"/><path class="st4" d="M63.389 31.228c0 0 -6.075 -11.191 -18.519 -13.083"/></g></svg>